# 3ds Max Wavefront OBJ Exporter v0.99 - (c)2007 guruware
# File Created: 09.05.2025 22:46:19

mtllib toad_b_izq.mtl

#
# object Nemu_0_0_52
#

v  -1.2389 -0.7195 -0.2723
v  -1.3817 -1.1038 -0.1641
v  -1.2626 -0.7407 -0.1470
v  -0.7402 0.0416 0.0173
v  -0.4970 -0.2829 0.1421
v  -1.0811 -0.8387 -0.4293
v  -0.9719 -1.0229 -0.2729
v  -0.9957 -1.0441 -0.1476
v  -0.1529 -0.6259 0.0159
v  -0.5683 -0.0662 0.3152
v  -0.0979 -0.3623 0.0875
v  -0.5570 0.1595 0.0886
v  -0.6808 0.0945 -0.2960
v  -0.0935 -0.5730 -0.2974
v  -0.0582 -0.0049 0.2888
v  -0.1863 0.1408 0.2891
v  0.0400 -0.0252 -0.1463
v  -0.1735 0.2175 -0.1458
v  -0.3391 -0.1856 -0.5788
# 19 vertices

vn -0.7957 0.3687 -0.4805
vn -0.7515 -0.6445 0.1413
vn -0.8180 0.3336 0.4685
vn -0.7717 0.5100 0.3799
vn -0.0563 -0.1228 0.9908
vn -0.2634 -0.1934 -0.9451
vn 0.2426 -0.8387 -0.4876
vn 0.2078 -0.8519 0.4807
vn 0.5693 -0.6167 0.5437
vn 0.0495 -0.0461 0.9977
vn 0.6177 -0.3216 0.7177
vn -0.2839 0.8176 0.5009
vn -0.4775 0.7369 -0.4785
vn 0.7409 -0.5199 -0.4252
vn 0.5054 0.0095 0.8628
vn 0.0760 0.5057 0.8593
vn 0.9433 0.2487 -0.2198
vn 0.3553 0.8963 -0.2653
vn 0.1992 0.1806 -0.9632
# 19 vertex normals

vt 0.8452 0.3902 0.0000
vt 0.8750 0.3041 0.0000
vt 0.8762 0.3863 0.0000
vt 0.9685 0.8500 0.0000
vt 1.1645 0.6746 0.0000
vt 0.7864 0.3265 0.0000
vt 0.8153 0.2191 0.0000
vt 0.8666 0.2165 0.0000
vt 1.3530 0.3852 0.0000
vt 1.1119 0.7165 0.0000
vt 0.3530 0.3852 0.0000
vt 0.3333 0.5460 0.0000
vt 0.1645 0.6746 0.0000
vt 0.1119 0.7165 0.0000
vt 0.1251 0.8986 0.0000
vt 0.6897 0.8583 0.0000
vt 1.1251 0.8986 0.0000
vt 1.4517 0.4381 0.0000
vt 0.4517 0.4381 0.0000
vt 0.2813 0.6836 0.0000
vt 0.2542 0.7550 0.0000
vt 0.4065 0.6641 0.0000
vt 0.4143 0.7972 0.0000
vt 0.5458 0.6139 0.0000
# 24 texture coords

o Nemu_0_0_52
g Nemu_0_0_52
usemtl toad_b_izq_Toad_NemuMat49
s 1
f 1/1/1 2/2/2 3/3/3 
f 3/3/3 4/4/4 1/1/1 
f 2/2/2 5/5/5 3/3/3 
f 4/4/4 3/3/3 5/5/5 
f 6/6/6 7/7/7 2/2/2 
f 8/8/8 2/2/2 7/7/7 
f 2/2/2 8/8/8 5/5/5 
f 2/2/2 1/1/1 6/6/6 
f 9/9/9 5/5/5 8/8/8 
f 10/10/10 4/4/4 5/5/5 
f 9/11/9 11/12/11 5/13/5 
f 10/14/10 5/13/5 12/15/12 
f 11/12/11 12/15/12 5/13/5 
f 4/4/4 13/16/13 1/1/1 
f 4/4/4 10/10/10 12/17/12 
f 4/4/4 12/17/12 13/16/13 
f 14/18/14 9/9/9 8/8/8 
f 7/7/7 14/19/14 8/8/8 
f 15/20/15 16/21/16 11/12/11 
f 16/21/16 12/15/12 11/12/11 
f 14/19/14 17/22/17 11/12/11 
f 9/11/9 14/19/14 11/12/11 
f 15/20/15 11/12/11 17/22/17 
f 13/16/13 12/15/12 18/23/18 
f 16/21/16 18/23/18 12/15/12 
f 16/21/16 15/20/15 17/22/17 
f 18/23/18 16/21/16 17/22/17 
f 17/22/17 19/24/19 18/23/18 
f 19/24/19 13/16/13 18/23/18 
f 17/22/17 14/19/14 19/24/19 
f 19/24/19 14/19/14 6/6/6 
f 14/19/14 7/7/7 6/6/6 
f 1/1/1 13/16/13 19/24/19 
f 6/6/6 1/1/1 19/24/19 
# 34 faces

