# 3ds Max Wavefront OBJ Exporter v0.99 - (c)2007 guruware
# File Created: 09.05.2025 21:06:51

mtllib toad_cuerpo.mtl

#
# object Nemu_26E73DFA_0_44
#

v  -0.9113 3.2247 1.0798
v  -1.2501 2.7756 0.2210
v  -0.6994 2.6755 1.1252
v  -0.6824 2.2585 0.5249
v  -0.0028 2.1450 0.9763
v  -0.0042 2.7246 1.4158
v  -0.0063 3.4356 1.4681
v  0.7070 2.6798 1.1240
v  -0.0076 3.8560 1.4380
v  0.9154 3.2303 1.0782
v  1.2555 2.7833 0.2187
v  0.6916 2.2627 0.5236
v  -0.9137 4.0008 1.0516
v  -0.0095 4.3905 1.2468
v  0.9130 4.0064 1.0500
v  -0.4725 2.1489 -0.0417
v  -0.9104 2.5056 -0.4759
v  -0.0036 2.0233 -0.4631
v  -1.3980 3.4880 -0.0661
v  1.3985 3.4965 -0.0686
v  -0.9932 3.0409 -0.8771
v  -0.0050 2.3331 -0.9626
v  0.4813 2.1519 -0.0425
v  -0.0068 2.8197 -1.2833
v  0.9162 2.5111 -0.4775
v  0.9951 3.0470 -0.8789
# 26 vertices

vn -0.7089 -0.0760 0.7012
vn -0.9011 -0.4201 0.1072
vn -0.5690 -0.4186 0.7079
vn -0.5360 -0.8173 0.2116
vn -0.0008 -0.8653 0.5013
vn -0.0018 -0.3231 0.9464
vn -0.0025 0.0083 1.0000
vn 0.5695 -0.4159 0.7091
vn -0.0026 0.1801 0.9836
vn 0.7087 -0.0711 0.7019
vn 0.9054 -0.4086 0.1157
vn 0.5336 -0.8156 0.2238
vn -0.6263 0.0821 0.7753
vn -0.0023 0.3368 0.9416
vn 0.6246 0.0855 0.7762
vn -0.4115 -0.9102 -0.0461
vn -0.6743 -0.6481 -0.3540
vn 0.0551 -0.9484 -0.3124
vn -0.9819 -0.1755 0.0707
vn 0.9847 -0.1586 0.0724
vn -0.7174 -0.4719 -0.5125
vn 0.0254 -0.7178 -0.6958
vn 0.3937 -0.9147 -0.0918
vn 0.0187 -0.5678 -0.8230
vn 0.6496 -0.6579 -0.3810
vn 0.6966 -0.4853 -0.5284
# 26 vertex normals

vt -0.0264 0.7188 0.0000
vt -0.0767 0.8428 0.0000
vt 0.0088 0.9141 0.0000
vt 0.0112 0.9834 0.0000
vt 0.1187 1.0098 0.0000
vt 0.1172 0.8525 0.0000
vt 0.1152 0.6621 0.0000
vt 0.2271 0.9102 0.0000
vt 0.1138 0.5449 0.0000
vt 0.2583 0.7129 0.0000
vt 0.3110 0.8359 0.0000
vt 0.2261 0.9785 0.0000
vt -0.0288 0.5078 0.0000
vt 0.1123 0.3984 0.0000
vt 0.2568 0.5020 0.0000
vt -0.1958 0.7891 0.0000
vt -0.1367 0.6807 0.0000
vt -0.1333 0.8281 0.0000
vt -0.1025 0.6533 0.0000
vt 0.3330 0.6445 0.0000
vt -0.2798 0.7490 0.0000
vt -0.2437 0.5889 0.0000
vt -0.3447 0.7803 0.0000
vt -0.2095 0.3730 0.0000
vt -0.0825 0.5195 0.0000
vt -0.0620 0.7402 0.0000
vt -0.0225 0.5889 0.0000
# 27 texture coords

o Nemu_26E73DFA_0_44
g Nemu_26E73DFA_0_44
usemtl Toad_NemuMat44
s 1
f 1/1/1 2/2/2 3/3/3 
f 3/3/3 4/4/4 5/5/5 
f 4/4/4 3/3/3 2/2/2 
f 6/6/6 7/7/7 3/3/3 
f 6/6/6 3/3/3 5/5/5 
f 1/1/1 3/3/3 7/7/7 
f 6/6/6 8/8/8 7/7/7 
f 8/8/8 6/6/6 5/5/5 
f 7/7/7 9/9/9 1/1/1 
f 7/7/7 10/10/10 9/9/9 
f 10/10/10 7/7/7 8/8/8 
f 10/10/10 8/8/8 11/11/11 
f 12/12/12 8/8/8 5/5/5 
f 12/12/12 11/11/11 8/8/8 
f 13/13/13 1/1/1 9/9/9 
f 14/14/14 9/9/9 15/15/15 
f 15/15/15 9/9/9 10/10/10 
f 9/9/9 14/14/14 13/13/13 
f 16/16/16 17/17/17 18/18/18 
f 13/13/13 19/19/19 1/1/1 
f 2/2/2 1/1/1 19/19/19 
f 15/15/15 10/10/10 20/20/20 
f 11/11/11 20/20/20 10/10/10 
f 4/21/4 2/22/2 16/16/16 
f 4/21/4 16/16/16 5/23/5 
f 2/22/2 17/17/17 16/16/16 
f 16/16/16 18/18/18 5/23/5 
f 2/22/2 19/24/19 17/17/17 
f 19/24/19 21/25/21 17/17/17 
f 17/17/17 22/26/22 18/18/18 
f 17/17/17 21/25/21 22/26/22 
f 18/18/18 23/16/23 5/23/5 
f 23/16/23 12/21/12 5/23/5 
f 21/25/21 24/27/24 22/26/22 
f 18/18/18 22/26/22 23/16/23 
f 22/26/22 25/17/25 23/16/23 
f 22/26/22 24/27/24 25/17/25 
f 24/27/24 26/25/26 25/17/25 
f 23/16/23 25/17/25 12/21/12 
f 25/17/25 11/22/11 12/21/12 
f 25/17/25 26/25/26 11/22/11 
f 26/25/26 20/24/20 11/22/11 
# 42 faces

#
# object Nemu_1C72995D_0_45
#

v  2.2872 3.6282 -0.0040
v  1.1383 4.5368 1.7477
v  0.5415 3.8763 0.9850
v  -0.5415 3.8730 0.9859
v  2.8343 4.3431 -0.3725
v  1.4264 5.4749 1.8171
v  -1.1410 4.5298 1.7659
v  1.2212 3.4139 0.1736
v  1.1409 2.6963 -1.7376
v  0.5430 2.9152 -0.6690
v  -1.1488 6.7345 0.5975
v  -2.2952 5.8026 -1.1361
v  -2.8423 5.1039 -0.7675
v  -0.6327 6.8224 -0.4371
v  -0.0183 6.4904 -1.4902
v  -1.2785 6.3082 -1.3930
v  1.1305 6.7414 0.5955
v  0.6120 6.8263 -0.4544
v  -1.4214 6.2444 1.4034
v  1.4236 6.2531 1.4009
v  -1.4186 5.4663 1.8196
v  -1.1462 4.8940 -2.8878
v  -0.6312 5.7981 -2.3824
v  -2.8395 4.3258 -0.3675
v  -2.2874 3.6142 0.0162
v  2.8316 5.1050 -0.7726
v  -1.0741 3.3424 0.1430
v  -0.5400 2.9118 -0.6681
v  -1.1384 2.6894 -1.7356
v  2.2795 5.8166 -1.1563
v  -1.4343 3.9720 -2.9571
v  -1.4315 3.1777 -2.5410
v  1.2593 6.3160 -1.4114
v  0.6135 5.8019 -2.3835
v  1.1331 4.9010 -2.9060
v  1.4135 3.1864 -2.5435
v  1.4107 3.9646 -2.9597
# 37 vertices

vn 0.6395 -0.6794 0.3598
vn 0.3140 -0.4510 0.8354
vn 0.1032 -0.7805 0.6165
vn -0.0581 -0.7844 0.6176
vn 0.9629 -0.2390 0.1252
vn 0.4832 0.1407 0.8641
vn -0.3074 -0.4393 0.8441
vn 0.2523 -0.8332 0.4920
vn 0.4545 -0.8869 0.0834
vn 0.1293 -0.9548 0.2678
vn -0.3568 0.9097 0.2124
vn -0.6363 0.7544 -0.1611
vn -0.9738 0.2213 0.0517
vn -0.2265 0.9676 -0.1113
vn -0.0463 0.8519 -0.5216
vn -0.3796 0.8200 -0.4283
vn 0.3483 0.9134 0.2108
vn 0.2362 0.9710 -0.0379
vn -0.4816 0.6303 0.6089
vn 0.4814 0.6346 0.6046
vn -0.4802 0.1470 0.8647
vn -0.1419 0.3594 -0.9223
vn -0.1913 0.6700 -0.7173
vn -0.9620 -0.2424 0.1257
vn -0.6394 -0.6799 0.3589
vn 0.9736 0.2240 0.0447
vn -0.2251 -0.8631 0.4520
vn -0.1197 -0.9563 0.2668
vn -0.4463 -0.8907 0.0868
vn 0.6330 0.7564 -0.1644
vn -0.3639 -0.2666 -0.8925
vn -0.6143 -0.5161 -0.5969
vn 0.4144 0.7961 -0.4410
vn 0.1807 0.6741 -0.7162
vn 0.1298 0.3570 -0.9251
vn 0.6135 -0.5133 -0.6002
vn 0.3565 -0.2738 -0.8933
# 37 vertex normals

vt 0.5078 0.9883 0.0000
vt 0.0479 0.6934 0.0000
vt -0.0127 0.9600 0.0000
vt -0.2598 1.0195 0.0000
vt 0.7236 0.7764 0.0000
vt 0.1494 0.4062 0.0000
vt -0.4717 0.8193 0.0000
vt 0.3037 1.3916 0.0000
vt 0.3125 1.4746 0.0000
vt 0.3584 1.3213 0.0000
vt 0.1572 1.4258 0.0000
vt 0.2236 1.3584 0.0000
vt 0.0947 0.5430 0.0000
vt -0.1289 0.5820 0.0000
vt -0.1963 0.7432 0.0000
vt 0.4961 0.6377 0.0000
vt 0.2471 0.4570 0.0000
vt 0.2393 0.7441 0.0000
vt 0.5137 0.4531 0.0000
vt 0.3887 0.3750 0.0000
vt 0.1562 0.4248 0.0000
vt 0.5205 0.4990 0.0000
vt 0.0586 0.5381 0.0000
vt 0.0107 0.7285 0.0000
vt 0.5869 0.6797 0.0000
vt 0.0244 0.9043 0.0000
vt 0.6006 0.8555 0.0000
vt 0.0977 1.0283 0.0000
vt 0.2305 1.0283 0.0000
vt -0.2178 0.7500 0.0000
vt 0.6934 0.8379 0.0000
vt -0.0107 0.5898 0.0000
vt 0.6221 0.5059 0.0000
vt 0.5449 0.3516 0.0000
vt -0.1729 0.4795 0.0000
vt -0.1689 0.6992 0.0000
vt 0.6250 0.7266 0.0000
vt -0.0820 0.9463 0.0000
vt 0.5039 0.9502 0.0000
vt 0.5010 0.7979 0.0000
vt -0.0371 0.9727 0.0000
vt 0.5547 0.9678 0.0000
vt 0.3447 1.2363 0.0000
vt 0.4111 1.1699 0.0000
vt 0.2705 1.2129 0.0000
vt 0.2559 1.1201 0.0000
vt 0.2109 1.2744 0.0000
vt 0.1299 1.2490 0.0000
vt -0.0400 0.8203 0.0000
vt 0.4434 0.6113 0.0000
vt 0.0088 0.6299 0.0000
vt 0.6777 0.5557 0.0000
vt -0.0635 0.4678 0.0000
vt -0.0889 0.7100 0.0000
vt 0.6523 0.7988 0.0000
vt -0.0391 0.9385 0.0000
vt 0.5557 1.0078 0.0000
vt 0.3438 0.4287 0.0000
vt 0.1025 0.4395 0.0000
vt 0.3271 0.7510 0.0000
vt 0.2100 0.3721 0.0000
vt -0.0400 0.6670 0.0000
vt 0.5752 0.4736 0.0000
vt 0.4141 1.0869 0.0000
vt -0.2480 0.9346 0.0000
vt 0.5371 0.9727 0.0000
vt 0.6045 0.7432 0.0000
vt -0.0186 0.9551 0.0000
vt 0.4414 0.5889 0.0000
vt -0.0049 0.6035 0.0000
vt -0.0439 0.7969 0.0000
vt 0.3232 0.4160 0.0000
vt 0.5117 0.7793 0.0000
vt -0.0352 0.9678 0.0000
vt 0.5205 0.9502 0.0000
vt 0.6035 0.5254 0.0000
vt -0.0889 0.5029 0.0000
vt -0.0879 0.7217 0.0000
# 78 texture coords

o Nemu_1C72995D_0_45
g Nemu_1C72995D_0_45
usemtl Toad_NemuMat45
s 1
f 27/28/27 28/29/28 29/30/29 
f 29/30/29 28/29/28 30/31/30 
f 27/28/27 31/32/31 28/29/28 
f 31/32/31 32/33/32 28/29/28 
f 28/29/28 33/34/33 30/31/30 
f 28/29/28 32/33/32 33/34/33 
f 34/35/34 27/36/27 29/37/29 
f 35/38/35 27/36/27 34/35/34 
f 36/39/36 35/38/35 34/35/34 
f 37/40/37 38/41/38 39/42/39 
f 40/43/40 41/44/41 42/45/42 
f 43/46/43 44/47/44 37/40/37 
f 44/47/44 40/48/40 37/40/37 
f 43/49/43 37/50/37 45/51/45 
f 46/52/46 43/49/43 45/51/45 
f 46/52/46 45/51/45 47/53/47 
f 32/54/32 46/52/46 47/53/47 
f 32/54/32 47/53/47 33/55/33 
f 40/43/40 42/45/42 38/56/38 
f 38/56/38 42/45/42 48/57/48 
f 37/58/37 40/43/40 38/56/38 
f 42/45/42 41/44/41 49/59/49 
f 45/60/45 37/61/37 39/62/39 
f 45/60/45 39/62/39 50/63/50 
f 47/64/47 45/60/45 50/63/50 
f 47/64/47 50/63/50 51/65/51 
f 42/45/42 49/59/49 48/57/48 
f 31/66/31 52/67/52 32/68/32 
f 33/69/33 47/64/47 51/65/51 
f 30/70/30 33/71/33 53/72/53 
f 33/71/33 51/73/51 53/72/53 
f 53/72/53 51/73/51 54/74/54 
f 51/73/51 55/75/55 54/74/54 
f 52/67/52 46/76/46 32/68/32 
f 54/74/54 55/75/55 36/39/36 
f 52/67/52 56/77/56 46/76/46 
f 56/77/56 43/78/43 46/76/46 
f 39/79/39 57/80/57 58/81/58 
f 50/82/50 39/79/39 58/81/58 
f 50/82/50 58/81/58 55/83/55 
f 51/84/51 50/82/50 55/83/55 
f 55/75/55 35/38/35 36/39/36 
f 56/77/56 59/85/59 43/78/43 
f 59/85/59 44/86/44 43/78/43 
f 60/87/60 41/88/41 59/89/59 
f 49/90/49 60/87/60 61/91/61 
f 61/91/61 60/87/60 56/92/56 
f 60/87/60 59/89/59 56/92/56 
f 49/90/49 41/88/41 60/87/60 
f 35/93/35 62/94/62 27/95/27 
f 48/96/48 61/97/61 63/98/63 
f 48/96/48 49/99/49 61/97/61 
f 57/100/57 48/96/48 63/98/63 
f 57/100/57 63/98/63 62/101/62 
f 58/102/58 57/100/57 62/101/62 
f 63/103/63 52/104/52 31/105/31 
f 62/94/62 63/103/63 31/105/31 
f 62/94/62 31/105/31 27/95/27 
# 58 faces

#
# object Nemu_0_0_46
#

v  1.1331 4.9010 -2.9060
v  2.2795 5.8166 -1.1563
v  2.8316 5.1050 -0.7726
v  0.6120 6.8263 -0.4544
v  -0.0183 6.4904 -1.4902
v  -0.6327 6.8224 -0.4371
v  1.2593 6.3160 -1.4114
v  -2.2952 5.8026 -1.1361
v  -1.1462 4.8940 -2.8878
v  -1.4343 3.9720 -2.9571
v  -2.8423 5.1039 -0.7675
v  -1.4315 3.1777 -2.5410
v  1.4135 3.1864 -2.5435
v  1.1409 2.6963 -1.7376
v  -1.1384 2.6894 -1.7356
v  1.4107 3.9646 -2.9597
# 16 vertices

vn 0.7446 0.2542 -0.6172
vn 0.7467 0.2461 -0.6180
vn 0.7460 0.2488 -0.6177
vn 0.0714 0.9353 -0.3467
vn 0.0708 0.9354 -0.3464
vn -0.0072 0.9525 -0.3045
vn 0.1480 0.9108 -0.3854
vn -0.7430 0.2629 -0.6155
vn -0.7320 0.2756 -0.6231
vn -0.7356 0.2714 -0.6206
vn -0.7455 0.2600 -0.6137
vn 0.0021 -0.8547 -0.5190
vn 0.7442 0.2560 -0.6170
# 13 vertex normals

vt 0.5331 0.5240 0.0000
vt 0.3753 0.6499 0.0000
vt 0.3539 0.5422 0.0000
vt 1.2410 0.8755 0.0000
vt 0.6283 0.9450 0.0000
vt 1.0122 0.8741 0.0000
vt 0.4067 0.7941 0.0000
vt 0.2410 0.8755 0.0000
vt 0.8768 0.6487 0.0000
vt 0.7177 0.5230 0.0000
vt 0.7318 0.3851 0.0000
vt 0.8971 0.5422 0.0000
vt 0.7523 0.2706 0.0000
vt 0.4981 0.2719 0.0000
vt 0.4496 0.1645 0.0000
vt 0.7998 0.1614 0.0000
vt 0.5190 0.3842 0.0000
# 17 texture coords

o Nemu_0_0_46
g Nemu_0_0_46
usemtl Toad_NemuMat32
s 1
f 64/106/64 65/107/65 66/108/66 
f 67/109/67 68/110/68 69/111/69 
f 70/112/70 68/110/68 67/113/67 
f 71/114/71 72/115/72 73/116/73 
f 74/117/74 71/114/71 73/116/73 
f 75/118/75 76/119/75 77/120/75 
f 78/121/75 75/118/75 77/120/75 
f 79/122/76 64/106/64 66/108/66 
# 8 faces

#
# object Nemu_0_0_47
#

v  -0.9881 1.7762 0.5833
v  -0.9888 1.7728 -0.3057
v  -1.2933 0.9153 -0.2537
v  0.5770 2.4561 -0.4229
v  0.4979 1.7753 -0.8405
v  -0.5707 2.4526 -0.4219
v  0.5781 2.3301 0.4505
v  1.0002 1.7823 0.5816
v  0.9994 1.7789 -0.3075
v  0.4185 1.8304 0.9375
v  1.3098 0.9913 0.6167
v  1.3092 0.9233 -0.2560
v  0.6459 0.8695 -1.0958
v  0.6473 1.0723 1.1827
v  -1.2927 0.9834 0.6190
v  -0.4882 1.7723 -0.8396
v  -0.5696 2.3266 0.4515
v  -0.4060 1.8279 0.9383
v  -0.6297 1.0684 1.1839
v  -0.6312 0.8656 -1.0946
# 20 vertices

vn -0.7794 0.4822 0.3999
vn -0.8616 0.3876 -0.3277
vn -0.8912 0.3218 -0.3195
vn 0.5562 0.5865 -0.5887
vn 0.3354 0.3848 -0.8599
vn -0.5764 0.5772 -0.5785
vn 0.7117 0.6251 0.3206
vn 0.7719 0.4521 0.4469
vn 0.8584 0.3934 -0.3292
vn 0.5375 0.4184 0.7321
vn 0.8594 0.3789 0.3434
vn 0.8982 0.3062 -0.3155
vn 0.3959 0.2920 -0.8707
vn 0.6221 0.4046 0.6703
vn -0.8794 0.3523 0.3203
vn -0.3516 0.3736 -0.8584
vn -0.7489 0.5973 0.2871
vn -0.4928 0.4544 0.7421
vn -0.5837 0.3328 0.7406
vn -0.4082 0.3063 -0.8600
# 20 vertex normals

vt 0.9483 0.5533 0.0000
vt 0.8147 0.5535 0.0000
vt 0.8339 0.2667 0.0000
vt 0.4923 0.8291 0.0000
vt 0.5482 0.5555 0.0000
vt 0.7594 0.8276 0.0000
vt 0.2864 0.8231 0.0000
vt 0.3026 0.5561 0.0000
vt 0.4363 0.5564 0.0000
vt 0.1976 0.5907 0.0000
vt 0.3145 0.2904 0.0000
vt 0.4169 0.2688 0.0000
vt 0.5468 0.2578 0.0000
vt 0.2100 0.2940 0.0000
vt 0.9366 0.2881 0.0000
vt 0.7030 0.5540 0.0000
vt 0.9640 0.8217 0.0000
vt 1.0532 0.5894 0.0000
vt 1.0414 0.2927 0.0000
vt 0.7038 0.2568 0.0000
# 20 texture coords

o Nemu_0_0_47
g Nemu_0_0_47
usemtl Toad_NemuMat47
s 1
f 80/123/77 81/124/78 82/125/79 
f 83/126/80 84/127/81 85/128/82 
f 86/129/83 87/130/84 83/126/80 
f 87/130/84 88/131/85 83/126/80 
f 84/127/81 83/126/80 88/131/85 
f 87/130/84 86/129/83 89/132/86 
f 88/131/85 87/130/84 90/133/87 
f 87/130/84 89/132/86 90/133/87 
f 91/134/88 88/131/85 90/133/87 
f 88/131/85 91/134/88 92/135/89 
f 84/127/81 88/131/85 92/135/89 
f 89/132/86 93/136/90 90/133/87 
f 94/137/91 80/123/77 82/125/79 
f 82/125/79 81/124/78 95/138/92 
f 81/124/78 80/123/77 96/139/93 
f 97/140/94 96/139/93 80/123/77 
f 97/140/94 80/123/77 98/141/95 
f 85/128/82 81/124/78 96/139/93 
f 99/142/96 95/138/92 92/135/89 
f 95/138/92 84/127/81 92/135/89 
f 84/127/81 95/138/92 85/128/82 
f 80/123/77 94/137/91 98/141/95 
f 81/124/78 85/128/82 95/138/92 
f 99/142/96 82/125/79 95/138/92 
# 24 faces

#
# object Nemu_0_0_48
#

v  -0.5498 0.7699 -0.8344
v  0.5656 0.7733 -0.8353
v  0.7126 0.3875 -0.3975
v  0.9197 1.6524 0.4865
v  0.4675 1.6527 0.9234
v  1.1481 0.9743 0.5374
v  0.5667 0.9748 1.1199
v  0.7136 0.3916 0.6855
v  1.1476 0.8902 -0.3352
v  0.9190 1.6494 -0.2894
v  -0.6928 0.3873 0.6868
v  -0.5487 0.9714 1.1209
v  -0.4554 1.6437 -0.6923
v  0.4660 1.6465 -0.6931
v  -0.9069 1.6468 0.4881
v  -0.9076 1.6438 -0.2878
v  -1.1316 0.8832 -0.3332
v  -0.6937 0.3832 -0.3963
v  -0.4539 1.6499 0.9242
v  -1.1311 0.9674 0.5394
# 20 vertices

vn -0.3118 -0.2777 -0.9087
vn 0.3162 -0.2711 -0.9091
vn 0.3990 -0.8493 -0.3456
vn 0.8659 0.3205 0.3840
vn 0.3562 0.3033 0.8838
vn 0.9325 -0.0906 0.3496
vn 0.3472 -0.1140 0.9309
vn 0.4150 -0.8022 0.4291
vn 0.9145 -0.1594 -0.3719
vn 0.8593 0.2779 -0.4295
vn -0.4168 -0.8045 0.4231
vn -0.3429 -0.1181 0.9319
vn -0.3295 0.1979 -0.9232
vn 0.3387 0.1887 -0.9218
vn -0.8733 0.3134 0.3729
vn -0.8691 0.2803 -0.4075
vn -0.9193 -0.1790 -0.3505
vn -0.4029 -0.8509 -0.3370
vn -0.3511 0.3056 0.8851
vn -0.9354 -0.1064 0.3371
# 20 vertex normals

vt 0.7110 0.3792 0.0000
vt 0.5402 0.3805 0.0000
vt 0.4737 0.2107 0.0000
vt 0.3118 0.7690 0.0000
vt 0.2065 0.7770 0.0000
vt 0.3173 0.4800 0.0000
vt 0.2052 0.4793 0.0000
vt 0.2654 0.2208 0.0000
vt 0.4337 0.4421 0.0000
vt 0.4401 0.7680 0.0000
vt 1.2654 0.2208 0.0000
vt 1.2052 0.4793 0.0000
vt 0.9857 0.2193 0.0000
vt 1.0456 0.4776 0.0000
vt 0.0456 0.4776 0.0000
vt 1.4737 0.2107 0.0000
vt 0.7095 0.7779 0.0000
vt 0.5425 0.7793 0.0000
vt 0.9386 0.7669 0.0000
vt 0.8111 0.7655 0.0000
vt 0.8171 0.4391 0.0000
vt 0.7770 0.2096 0.0000
vt 1.0437 0.7760 0.0000
vt 0.9334 0.4769 0.0000
vt 0.0437 0.7760 0.0000
# 25 texture coords

o Nemu_0_0_48
g Nemu_0_0_48
usemtl Toad_NemuMat32
s 1
f 100/143/97 101/144/98 102/145/99 
f 103/146/100 104/147/101 105/148/102 
f 104/147/101 106/149/103 105/148/102 
f 106/149/103 107/150/104 105/148/102 
f 108/151/105 105/148/102 107/150/104 
f 109/152/106 103/146/100 105/148/102 
f 108/151/105 109/152/106 105/148/102 
f 107/153/104 106/154/103 110/155/107 
f 106/154/103 111/156/108 110/155/107 
f 106/149/103 104/147/101 111/157/108 
f 102/145/99 108/151/105 107/150/104 
f 107/153/104 110/155/107 102/158/99 
f 112/159/109 113/160/110 101/144/98 
f 100/143/97 112/159/109 101/144/98 
f 108/151/105 102/145/99 101/144/98 
f 113/160/110 109/152/106 101/144/98 
f 109/152/106 108/151/105 101/144/98 
f 114/161/111 115/162/112 116/163/113 
f 110/155/107 117/164/114 102/158/99 
f 117/164/114 100/143/97 102/145/99 
f 118/165/115 114/161/111 111/156/108 
f 114/161/111 119/166/116 111/156/108 
f 104/147/101 118/167/115 111/157/108 
f 119/166/116 110/155/107 111/156/108 
f 110/155/107 119/166/116 117/164/114 
f 119/166/116 116/163/113 117/164/114 
f 119/166/116 114/161/111 116/163/113 
f 100/143/97 116/163/113 112/159/109 
f 116/163/113 115/162/112 112/159/109 
f 100/143/97 117/164/114 116/163/113 
# 30 faces

#
# object Nemu_0_0_49
#

v  0.9197 1.6524 0.4865
v  0.3354 2.3937 0.3548
v  0.4675 1.6527 0.9234
v  -0.4539 1.6499 0.9242
v  0.3348 2.3911 -0.3241
v  0.9190 1.6494 -0.2894
v  -0.3274 2.3917 0.3554
v  -0.3280 2.3891 -0.3235
v  0.4660 1.6465 -0.6931
v  -0.4554 1.6437 -0.6923
v  -0.9069 1.6468 0.4881
v  -0.9076 1.6438 -0.2878
# 12 vertices

vn 0.7270 0.6239 0.2868
vn 0.3643 0.8550 0.3693
vn 0.2808 0.6152 0.7367
vn -0.2832 0.6135 0.7372
vn 0.3637 0.8120 -0.4565
vn 0.7586 0.5840 -0.2889
vn -0.3688 0.8527 0.3699
vn -0.3695 0.8098 -0.4559
vn 0.3106 0.4655 -0.8288
vn -0.3149 0.4636 -0.8282
vn -0.7302 0.6195 0.2881
vn -0.7626 0.5794 -0.2876
# 12 vertex normals

vt 0.3114 0.2659 0.0000
vt 0.2703 0.8645 0.0000
vt 0.2067 0.2582 0.0000
vt 0.0445 0.2566 0.0000
vt 0.5203 0.8313 0.0000
vt 0.4393 0.2643 0.0000
vt 0.9795 0.8631 0.0000
vt 0.7318 0.8295 0.0000
vt 1.0445 0.2566 0.0000
vt 1.2703 0.8645 0.0000
vt 0.5417 0.2504 0.0000
vt 0.7094 0.2495 0.0000
vt 0.9393 0.2632 0.0000
vt 0.8114 0.2622 0.0000
# 14 texture coords

o Nemu_0_0_49
g Nemu_0_0_49
usemtl Toad_NemuMat49
s 1
f 120/168/117 121/169/118 122/170/119 
f 123/171/120 122/170/119 121/169/118 
f 121/169/118 120/168/117 124/172/121 
f 120/168/117 125/173/122 124/172/121 
f 126/174/123 121/169/118 127/175/124 
f 121/169/118 124/172/121 127/175/124 
f 126/174/123 123/176/120 121/177/118 
f 128/178/125 124/172/121 125/173/122 
f 128/178/125 129/179/126 127/175/124 
f 124/172/121 128/178/125 127/175/124 
f 123/176/120 126/174/123 130/180/127 
f 131/181/128 130/180/127 126/174/123 
f 127/175/124 131/181/128 126/174/123 
f 131/181/128 127/175/124 129/179/126 
# 14 faces

#
# object Nemu_0_0_50
#

v  0.9725 0.5543 1.2149
v  0.9531 0.0371 1.3403
v  1.4622 0.5557 0.9316
v  1.5828 0.0390 0.9760
v  0.4208 0.0347 1.1626
v  0.1759 0.0323 0.3518
v  0.2034 0.0315 -0.1496
v  1.6942 0.0384 0.4260
v  1.1134 0.0350 -0.1905
v  0.6651 0.0328 -0.4167
v  0.5182 0.5521 1.0108
v  1.5117 0.5550 0.4360
v  1.0138 0.4550 -0.1346
v  0.6622 0.3886 -0.3231
v  0.2844 0.3875 -0.1046
v  0.2722 0.4528 0.2944
v  0.4535 0.6150 0.1889
v  0.8313 0.6161 -0.0297
v  0.7366 0.8436 0.8086
v  1.2263 0.8450 0.5252
# 20 vertices

vn 0.0733 0.5270 0.8467
vn 0.0562 -0.5257 0.8488
vn 0.6804 0.5388 0.4967
vn 0.6948 -0.5330 0.4828
vn -0.6119 -0.4917 0.6195
vn -0.8087 -0.5786 0.1061
vn -0.7297 -0.5191 -0.4451
vn 0.8345 -0.4968 -0.2384
vn 0.4980 -0.5761 -0.6481
vn -0.0223 -0.5182 -0.8550
vn -0.6575 0.5008 0.5629
vn 0.7954 0.5224 -0.3073
vn 0.4839 0.5088 -0.7120
vn -0.0678 0.5159 -0.8539
vn -0.7113 0.5124 -0.4812
vn -0.8723 0.4861 0.0533
vn -0.4605 0.8575 -0.2296
vn 0.0503 0.8610 -0.5061
vn -0.2616 0.9326 0.2486
vn 0.3453 0.9313 -0.1159
# 20 vertex normals

vt 0.1503 0.6008 0.0000
vt 0.1402 0.2560 0.0000
vt 0.2940 0.5986 0.0000
vt 0.2995 0.2608 0.0000
vt 1.0350 0.2551 0.0000
vt 0.8496 0.2083 0.0000
vt 1.1402 0.2560 0.0000
vt 0.7392 0.2504 0.0000
vt 0.4060 0.2769 0.0000
vt 0.5475 0.2586 0.0000
vt 0.6313 0.2729 0.0000
vt 0.0371 0.6100 0.0000
vt 0.0350 0.2551 0.0000
vt 0.4076 0.5951 0.0000
vt 0.5611 0.5144 0.0000
vt 1.0371 0.6100 0.0000
vt 0.6344 0.4626 0.0000
vt 0.7318 0.4564 0.0000
vt 0.8245 0.5173 0.0000
vt 0.7552 0.7186 0.0000
vt 0.5986 0.6787 0.0000
vt 1.0808 0.8800 0.0000
vt 1.3867 0.8414 0.0000
vt 0.3868 0.8414 0.0000
vt 0.0808 0.8800 0.0000
# 25 texture coords

o Nemu_0_0_50
g Nemu_0_0_50
usemtl Toad_NemuMat50
s 1
f 132/182/129 133/183/130 134/184/131 
f 133/183/130 135/185/132 134/184/131 
f 136/186/133 137/187/134 133/188/130 
f 137/187/134 138/189/135 133/188/130 
f 139/190/136 135/185/132 133/183/130 
f 140/191/137 139/190/136 133/183/130 
f 141/192/138 140/191/137 133/183/130 
f 138/189/135 141/192/138 133/188/130 
f 132/182/129 142/193/139 133/183/130 
f 142/193/139 136/194/133 133/183/130 
f 143/195/140 134/184/131 139/190/136 
f 143/195/140 139/190/136 144/196/141 
f 139/190/136 140/191/137 144/196/141 
f 134/184/131 135/185/132 139/190/136 
f 140/191/137 141/192/138 144/196/141 
f 137/187/134 136/186/133 142/197/139 
f 141/192/138 145/198/142 144/196/141 
f 141/192/138 138/189/135 146/199/143 
f 145/198/142 141/192/138 146/199/143 
f 146/199/143 138/189/135 137/187/134 
f 147/200/144 137/187/134 142/197/139 
f 146/199/143 148/201/145 145/198/142 
f 148/201/145 149/202/146 145/198/142 
f 144/196/141 145/198/142 149/202/146 
f 150/203/147 151/204/148 148/201/145 
f 151/205/148 149/202/146 148/201/145 
f 146/199/143 147/200/144 148/201/145 
f 150/203/147 148/201/145 147/200/144 
f 144/196/141 149/202/146 143/195/140 
f 149/202/146 151/205/148 143/195/140 
f 147/200/144 146/199/143 137/187/134 
f 142/197/139 150/203/147 147/200/144 
f 142/193/139 132/182/129 150/206/147 
f 151/205/148 150/206/147 132/182/129 
f 134/184/131 151/205/148 132/182/129 
f 134/184/131 143/195/140 151/205/148 
# 36 faces

#
# object Nemu_0_0_51
#

v  -1.4653 0.5488 0.9479
v  -1.5158 0.5462 0.4525
v  -1.5829 0.0315 0.9942
v  -0.9525 0.0343 1.3571
v  -0.9749 0.5509 1.2301
v  -1.6955 0.0286 0.4445
v  -1.1161 0.0264 -0.1733
v  -0.6683 0.0260 -0.4005
v  -0.4206 0.0342 1.1783
v  -0.1774 0.0305 0.3670
v  -0.2059 0.0280 -0.1343
v  -0.2761 0.4504 0.3085
v  -0.5211 0.5506 1.0250
v  -0.6671 0.3821 -0.3080
v  -0.2888 0.3837 -0.0903
v  -1.0187 0.4471 -0.1189
v  -1.2318 0.8381 0.5402
v  -0.7415 0.8402 0.8224
v  -0.8368 0.6096 -0.0149
v  -0.4585 0.6112 0.2028
# 20 vertices

vn -0.6969 0.5265 0.4869
vn -0.8169 0.4998 -0.2879
vn -0.7062 -0.5262 0.4737
vn -0.0697 -0.5325 0.8435
vn -0.0902 0.5393 0.8373
vn -0.8421 -0.4927 -0.2194
vn -0.4959 -0.5795 -0.6467
vn 0.0207 -0.5196 -0.8542
vn 0.6245 -0.4958 0.6035
vn 0.8110 -0.5752 0.1072
vn 0.7296 -0.5177 -0.4468
vn 0.8580 0.5098 0.0623
vn 0.6635 0.5235 0.5345
vn 0.0601 0.5119 -0.8569
vn 0.7048 0.5164 -0.4864
vn -0.4832 0.4851 -0.7288
vn -0.3472 0.9322 -0.1027
vn 0.2722 0.9318 0.2404
vn -0.0325 0.8571 -0.5141
vn 0.4625 0.8613 -0.2103
# 20 vertex normals

vt 0.9566 0.5971 0.0000
vt 0.8431 0.5922 0.0000
vt 0.9518 0.2596 0.0000
vt 1.1109 0.2569 0.0000
vt 1.1001 0.6024 0.0000
vt 0.8450 0.2746 0.0000
vt 0.7032 0.2572 0.0000
vt 0.6195 0.2724 0.0000
vt 1.2160 0.2569 0.0000
vt 1.4017 0.2096 0.0000
vt 0.5120 0.2512 0.0000
vt 0.4275 0.5205 0.0000
vt 0.2136 0.6138 0.0000
vt 0.2160 0.2569 0.0000
vt 0.4017 0.2096 0.0000
vt 0.1001 0.6024 0.0000
vt 0.1109 0.2569 0.0000
vt 0.6168 0.4617 0.0000
vt 0.5199 0.4576 0.0000
vt 0.6899 0.5120 0.0000
vt 0.8633 0.8398 0.0000
vt 0.1687 0.8820 0.0000
vt 0.6529 0.6767 0.0000
vt 0.4974 0.7198 0.0000
vt 1.1687 0.8820 0.0000
# 25 texture coords

o Nemu_0_0_51
g Nemu_0_0_51
usemtl Toad_NemuMat50
s 1
f 152/207/149 153/208/150 154/209/151 
f 155/210/152 156/211/153 154/209/151 
f 156/211/153 152/207/149 154/209/151 
f 153/208/150 157/212/154 154/209/151 
f 157/212/154 158/213/155 154/209/151 
f 158/213/155 159/214/156 154/209/151 
f 160/215/157 155/210/152 154/209/151 
f 161/216/158 160/215/157 154/209/151 
f 162/217/159 161/216/158 154/209/151 
f 159/214/156 162/217/159 154/209/151 
f 163/218/160 164/219/161 160/220/157 
f 161/221/158 163/218/160 160/220/157 
f 164/219/161 156/222/153 160/220/157 
f 156/222/153 155/223/152 160/220/157 
f 163/218/160 161/221/158 162/217/159 
f 157/212/154 153/208/150 158/213/155 
f 165/224/162 166/225/163 162/217/159 
f 159/214/156 165/224/162 162/217/159 
f 166/225/163 163/218/160 162/217/159 
f 159/214/156 158/213/155 165/224/162 
f 158/213/155 167/226/164 165/224/162 
f 153/208/150 167/226/164 158/213/155 
f 168/227/165 169/228/166 170/229/167 
f 169/228/166 171/230/168 170/229/167 
f 170/229/167 167/226/164 168/227/165 
f 171/230/168 166/225/163 170/229/167 
f 166/225/163 165/224/162 170/229/167 
f 167/226/164 170/229/167 165/224/162 
f 166/225/163 171/230/168 163/218/160 
f 164/219/161 163/218/160 171/230/168 
f 169/228/166 164/219/161 171/230/168 
f 167/226/164 153/208/150 168/227/165 
f 164/219/161 169/228/166 156/222/153 
f 152/207/149 156/211/153 169/231/166 
f 168/227/165 152/207/149 169/231/166 
f 152/207/149 168/227/165 153/208/150 
# 36 faces

